# xmcd CD database file
# Generated: Sa Dez 20 08:42:43 2003 by KSCD
# 
# Track frame offsets:
#       190
#       17678
#       40298
#       60111
#       80027
#       106448
#       136833
#       161718
#
# Disc length: 2657 seconds
#
# Revision: 3
# Processed by: cddbd v1.4PL0 Copyright (c) Steve Scherf et al.
# Submitted via: Kscd 1.3.3
#
DISCID=5e0a5f08
DTITLE=Fungoid - Don't Panic It's Plugged!
DYEAR=1900
DGENRE=
TTITLE0=Shake The House Down
TTITLE1=Call It Rock 'n' Roill
TTITLE2=Everybody
TTITLE3=Hide Your Heat
TTITLE4=Like A Hurricane
TTITLE5=Caroline
TTITLE6=Kansas city
TTITLE7=Hey Joe
EXTD=
EXTT0=
EXTT1=
EXTT2=
EXTT3=
EXTT4=
EXTT5=
EXTT6=
EXTT7=
PLAYORDER=
